<svg width="66" height="83" viewBox="0 0 66 83" fill="none" xmlns="http://www.w3.org/2000/svg">
<path d="M63 39.1617L54.7365 41.3174L61.9222 44.1916L60.8443 47.4251L59.0479 52.8144L55.4551 59.2814L50.0659 65.7485L44.6767 71.1377L39.6467 74.7305V20.8383L44.6767 21.5569L52.2216 22.994L59.4072 25.8683L63 28.0239V36.6467V39.1617Z" stroke="white" stroke-width="5"/>
<path d="M39.6467 39.5209H59.7665V43.1137H39.6467V39.5209Z" fill="white"/>
<path d="M3.00007 39.1617L11.3907 41.3174L4.0945 44.1916L5.18892 47.4251L7.01297 52.8144L10.6611 59.2814L16.1332 65.7485L21.6053 71.1377L26.7126 74.7305V20.8383L21.6053 21.5569L13.9443 22.994L6.64816 25.8683L3.00007 28.0239V36.6467V39.1617Z" stroke="white" stroke-width="5"/>
<path d="M26.7126 39.5209H6.28335V43.1137H26.7126V39.5209Z" fill="white"/>
<path d="M30.3054 16.5269H33.1797V69.7006H30.3054V16.5269Z" fill="#F5A623"/>
<path d="M33.1797 17.2455H36.0539V69.7006H33.1797V17.2455Z" fill="#F5A623"/>
<rect x="24.051" y="15.2245" width="17.5929" height="1.69162" fill="white"/>
<path d="M35.6947 2.51499C35.6947 3.90397 34.5687 5.02996 33.1798 5.02996C31.7908 5.02996 30.6648 3.90397 30.6648 2.51499C30.6648 1.12601 31.7908 2.01943e-05 33.1798 2.01943e-05C34.5687 2.01943e-05 35.6947 1.12601 35.6947 2.51499Z" fill="white"/>
<rect x="33.1797" y="17.2455" width="0.718563" height="52.4551" fill="#F5A623"/>
<path d="M33.8983 17.2455H35.3354V17.968H33.8983V17.2455Z" fill="#F5A623"/>
<rect x="33.8982" y="68.2635" width="1.43713" height="1.43713" fill="#F5A623"/>
<path d="M31.5372 3.5928H34.8221L36.0539 15.8084H30.3054L31.5372 3.5928Z" fill="white"/>
<path d="M33.1796 77.2455L30.3413 69.7006H33.1796V73.6527V77.2455Z" fill="#F5A623"/>
<path d="M36.0539 69.7006H33.1797V77.2455L36.0539 69.7006Z" fill="#F5A623"/>
<path d="M34.9758 17.2455V16.8862" stroke="#F5A623"/>
<path d="M33.1797 17.2455H36.0539" stroke="#F5A623"/>
<path d="M33.1797 4.3114V15.0898H36.0539L34.9761 4.3114H33.1797Z" fill="white"/>
</svg>
