<svg width="30" height="30" viewBox="0 0 31 31" fill="none" xmlns="http://www.w3.org/2000/svg">
<path d="M0 15.5C0 11.3891 1.63303 7.44666 4.53984 4.53984C7.44666 1.63303 11.3891 0 15.5 0C19.6109 0 23.5533 1.63303 26.4602 4.53984C29.367 7.44666 31 11.3891 31 15.5C31 19.6109 29.367 23.5533 26.4602 26.4602C23.5533 29.367 19.6109 31 15.5 31C11.3891 31 7.44666 29.367 4.53984 26.4602C1.63303 23.5533 0 19.6109 0 15.5ZM11.439 10.0692C11.3496 9.97666 11.2427 9.90286 11.1245 9.85209C11.0064 9.80132 10.8792 9.77459 10.7506 9.77348C10.622 9.77236 10.4944 9.79687 10.3754 9.84558C10.2563 9.89429 10.1481 9.96622 10.0572 10.0572C9.96622 10.1481 9.89429 10.2563 9.84558 10.3754C9.79687 10.4944 9.77236 10.622 9.77348 10.7506C9.77459 10.8792 9.80132 11.0064 9.85209 11.1245C9.90286 11.2427 9.97666 11.3496 10.0692 11.439L18.0052 19.375H12.6422C12.3853 19.375 12.1389 19.4771 11.9572 19.6587C11.7755 19.8404 11.6734 20.0868 11.6734 20.3438C11.6734 20.6007 11.7755 20.8471 11.9572 21.0288C12.1389 21.2104 12.3853 21.3125 12.6422 21.3125H20.3438C20.6007 21.3125 20.8471 21.2104 21.0288 21.0288C21.2104 20.8471 21.3125 20.6007 21.3125 20.3438V12.6422C21.3125 12.3853 21.2104 12.1389 21.0288 11.9572C20.8471 11.7755 20.6007 11.6734 20.3438 11.6734C20.0868 11.6734 19.8404 11.7755 19.6587 11.9572C19.4771 12.1389 19.375 12.3853 19.375 12.6422V18.0052L11.439 10.0692Z" fill="white"/>
</svg>
