<svg width="23" height="22" viewBox="0 0 23 22" fill="none" xmlns="http://www.w3.org/2000/svg">
<path fill-rule="evenodd" clip-rule="evenodd" d="M13.7174 0.0541428C13.9145 -0.0135039 14.1279 -0.0178701 14.3276 0.0416544C14.5273 0.101179 14.7035 0.22162 14.8314 0.386143L21.8314 9.38614C21.968 9.56169 22.0421 9.77774 22.0421 10.0001C22.0421 10.2225 21.968 10.4386 21.8314 10.6141L14.8314 19.6141C14.7034 19.7785 14.5273 19.8988 14.3277 19.9582C14.128 20.0176 13.9148 20.0132 13.7178 19.9456C13.5208 19.878 13.3498 19.7505 13.2287 19.581C13.1076 19.4115 13.0425 19.2084 13.0424 19.0001V15.0101C7.66341 15.1221 5.07941 16.1431 3.78141 17.2531C2.54741 18.3081 2.32141 19.5491 2.08641 20.8491L2.02541 21.1841C1.98054 21.4239 1.84961 21.6389 1.65727 21.7888C1.46493 21.9388 1.22443 22.0132 0.981017 21.9982C0.737605 21.9833 0.508061 21.8798 0.335571 21.7074C0.16308 21.535 0.0595326 21.3055 0.0444101 21.0621C-0.12759 18.3141 0.13041 14.3321 2.07141 11.0011C3.95541 7.76814 7.34741 5.28214 13.0424 5.02214V1.00014C13.0424 0.791793 13.1074 0.588627 13.2284 0.419026C13.3494 0.249424 13.5204 0.121856 13.7174 0.0541428Z" fill="white"/>
</svg>
