<svg width="89" height="115" viewBox="0 0 89 115" fill="none" xmlns="http://www.w3.org/2000/svg">
<path d="M86.5 54.5L75 57.5L85 61.5L83.5 66L81 73.5L76 82.5L68.5 91.5L61 99L54 104V29L61 30L71.5 32L81.5 36L86.5 39V51V54.5Z" stroke="white" stroke-width="5"/>
<path d="M54 55H82V60H54V55Z" fill="white"/>
<path d="M3 54.5L14.6769 57.5L4.52308 61.5L6.04615 66L8.58461 73.5L13.6615 82.5L21.2769 91.5L28.8923 99L36 104V29L28.8923 30L18.2308 32L8.07692 36L3 39V51V54.5Z" stroke="white" stroke-width="5"/>
<path d="M36 55H7.56923V60H36V55Z" fill="white"/>
<path d="M41 23H45V97H41V23Z" fill="#F5A623"/>
<path d="M45 24H49V97H45V24Z" fill="#F5A623"/>
<rect x="32.2958" y="21.1875" width="24.4834" height="2.35417" fill="white"/>
<path d="M48.5 3.50003C48.5 5.43302 46.933 7.00003 45 7.00003C43.067 7.00003 41.5 5.43302 41.5 3.50003C41.5 1.56703 43.067 2.81038e-05 45 2.81038e-05C46.933 2.81038e-05 48.5 1.56703 48.5 3.50003Z" fill="white"/>
<rect x="45" y="24" width="1" height="73" fill="#F5A623"/>
<path d="M46 24H48V25.0055H46V24Z" fill="#F5A623"/>
<rect x="46" y="95" width="2" height="2" fill="#F5A623"/>
<path d="M42.7143 5H47.2857L49 22H41L42.7143 5Z" fill="white"/>
<path d="M45 107.5L41.05 97H45V102.5V107.5Z" fill="#F5A623"/>
<path d="M49 97H45V107.5L49 97Z" fill="#F5A623"/>
<path d="M47.5 24V23.5" stroke="#F5A623"/>
<path d="M45 24H49" stroke="#F5A623"/>
<path d="M45 6V21H49L47.5 6H45Z" fill="white"/>
</svg>
