<svg width="332" height="469" viewBox="0 0 332 469" fill="none" xmlns="http://www.w3.org/2000/svg">
<g filter="url(#filter0_d_101_3)">
<rect x="14" y="20" width="292" height="429" rx="24" fill="url(#paint0_linear_101_3)"/>
</g>
<g clip-path="url(#clip0_101_3)">
<path d="M66.4792 268.322L70.9494 270.481L81.4 254.252L74.802 251.065L66.4792 268.322Z" fill="#FFB6B6"/>
<path d="M64.0703 272.913L77.8171 279.554L77.901 279.38C78.5859 277.96 78.6792 276.325 78.1601 274.836C77.6411 273.347 76.5524 272.126 75.1334 271.44L75.1331 271.44L73.5418 268.32L67.9371 267.964L66.7371 267.384L64.0703 272.913Z" fill="#2F2E41"/>
<path d="M99.7548 274.371L104.718 274.371L107.08 255.209L99.7537 255.209L99.7548 274.371Z" fill="#FFB6B6"/>
<path d="M99.5796 279.554L114.844 279.553V279.36C114.844 277.783 114.218 276.271 113.104 275.156C111.99 274.041 110.478 273.414 108.903 273.414H108.902L106.114 271.297L100.912 273.414L99.5793 273.414L99.5796 279.554Z" fill="#2F2E41"/>
<path d="M104.674 185.5L110.362 224.757L110.845 233.581L107.862 261.117L109.073 263.785L105.69 265.873H98.8058L98.4404 236.786L93.2781 212.426L92.4795 240.037L91.3743 242.17C87.2575 251.518 81.7118 254.579 77.7912 261.567L70.9066 257.835L71.051 255.051C69.6679 254.35 73.1275 252.302 73.4599 250.787L74.062 248.073L78.0781 239.748L78.2313 236.816L77.1322 216.874L77.6494 190.02L86.6798 183.109L104.674 185.5Z" fill="#2F2E41"/>
<path d="M96.0231 129.844C100.963 129.844 104.967 125.837 104.967 120.893C104.967 115.949 100.963 111.941 96.0231 111.941C91.0833 111.941 87.0789 115.949 87.0789 120.893C87.0789 125.837 91.0833 129.844 96.0231 129.844Z" fill="#FFB6B6"/>
<path d="M97.2537 192.745C85.4623 192.745 76.6171 188.3 76.4961 188.238L76.3913 188.184L76.4235 188.071C76.74 186.961 77.0399 185.1 76.4973 184.829C76.4389 184.806 76.3871 184.77 76.3467 184.722C76.3063 184.674 76.2785 184.617 76.2661 184.556C76.235 184.332 76.4581 184.129 76.767 183.846C77.3664 183.298 78.1875 182.548 77.706 181.343C76.857 179.219 79.244 168.336 79.3984 167.638L78.3788 150.289C78.1931 146.979 79.1517 143.706 81.0935 141.02C83.0354 138.334 85.842 136.399 89.0416 135.541L89.0643 135.535L89.0877 135.536C89.4192 135.555 89.7702 134.428 90.0365 133.604C90.4298 132.385 90.6895 131.636 91.1325 131.668C94.5623 131.889 96.8478 132.034 98.3708 132.129C101.258 132.308 101.764 135.823 101.826 136.385C104.935 138.28 107.365 141.11 108.772 144.469C110.178 147.829 110.488 151.548 109.658 155.094L108.219 161.288L106.947 164.264L107.366 170.135C109.339 171.777 108.774 175.135 108.661 175.703C110.541 177.649 109.387 179.939 109.107 180.424C109.588 181.013 109.915 181.712 110.059 182.458C110.204 183.205 110.16 183.975 109.933 184.701L111.664 190.332L111.534 190.377C106.941 191.964 102.113 192.765 97.2537 192.745Z" fill="#3F3D56"/>
<path d="M152.667 133.987C152.355 133.584 151.959 133.254 151.507 133.021C151.054 132.788 150.556 132.657 150.047 132.637C149.538 132.618 149.032 132.71 148.562 132.907C148.093 133.105 147.673 133.403 147.331 133.781L119.049 133.935L111.014 137.82L109.972 142.273L122.956 141.73L147.739 138.897C148.411 139.429 149.255 139.696 150.111 139.647C150.966 139.599 151.774 139.237 152.382 138.632C152.989 138.027 153.354 137.22 153.406 136.364C153.459 135.508 153.196 134.662 152.667 133.987H152.667Z" fill="#FFB6B6"/>
<path d="M120.888 143.296L109.879 148.508L99.6725 144.233L99.6623 144.15C99.47 142.639 99.735 141.105 100.423 139.747C101.111 138.388 102.191 137.268 103.522 136.53C105.652 135.342 107.974 134.537 110.382 134.153C117.133 133.148 118.502 132.762 118.515 132.758L118.664 132.715L120.888 143.296Z" fill="#3F3D56"/>
<path d="M88.4392 126.52C88.3288 126.52 88.219 126.502 88.1144 126.467C87.7034 126.287 87.3598 125.981 87.1328 125.594C85.5475 123.312 84.782 120.27 84.8579 116.551C84.89 114.978 85.0679 112.967 86.1687 111.363C87.0944 110.015 88.9669 108.945 90.712 109.483C90.6922 109.133 90.7696 108.785 90.9358 108.478C91.102 108.17 91.3503 107.914 91.6531 107.74C92.3218 107.396 93.0601 107.209 93.8117 107.194C95.5841 107.028 97.4164 106.856 99.211 107.196C101.223 107.578 102.869 108.616 103.725 110.044L103.743 110.089L103.917 110.935C103.94 111.049 103.988 111.156 104.057 111.25C104.126 111.343 104.214 111.421 104.315 111.477C104.417 111.533 104.53 111.566 104.645 111.575C104.761 111.583 104.877 111.566 104.986 111.525C105.104 111.481 105.233 111.468 105.358 111.488C105.483 111.508 105.6 111.56 105.699 111.639C105.798 111.719 105.874 111.823 105.92 111.941C105.967 112.059 105.982 112.187 105.963 112.312L105.915 112.649L106.421 112.554C106.548 112.53 106.678 112.541 106.8 112.584C106.921 112.627 107.029 112.702 107.112 112.801C107.195 112.899 107.25 113.018 107.272 113.145C107.295 113.272 107.283 113.403 107.238 113.524L107.095 113.911C107.2 113.911 107.304 113.934 107.399 113.976C107.495 114.018 107.581 114.079 107.653 114.156C107.755 114.266 107.82 114.407 107.837 114.556C107.854 114.706 107.823 114.857 107.748 114.987C107.183 115.955 106.38 116.763 105.416 117.335C104.889 117.652 104.313 117.879 103.712 118.006C99.8088 118.849 95.7845 118.97 91.8378 118.363C92.0714 119.143 92.1614 119.958 92.1032 120.769C92.069 121.229 91.9096 121.671 91.6423 122.047C91.375 122.423 91.0101 122.719 90.587 122.902C90.406 122.961 90.2208 123.005 90.0329 123.035C89.8532 123.063 89.6763 123.106 89.5038 123.164C89.2483 123.258 89.022 123.418 88.8478 123.627C88.6736 123.837 88.5576 124.088 88.5117 124.357C88.4657 124.626 88.4913 124.902 88.5859 125.157C88.6805 125.413 88.8408 125.639 89.0506 125.812L89.4425 125.404L89.315 125.923C89.2884 126.024 89.2408 126.119 89.1754 126.2C89.1099 126.282 89.0281 126.349 88.9351 126.397C88.7825 126.478 88.6121 126.52 88.4392 126.52Z" fill="#2F2E41"/>
<path d="M148.335 235.618C176.546 235.618 199.415 213.079 199.415 185.276C199.415 157.473 176.546 134.934 148.335 134.934C120.124 134.934 97.2542 157.473 97.2542 185.276C97.2542 213.079 120.124 235.618 148.335 235.618Z" fill="#E6E6E6"/>
<path d="M190.659 185.276C190.665 191.313 189.341 197.277 186.78 202.742C186.701 202.911 186.62 203.079 186.539 203.248C182.622 211.277 176.258 217.855 168.366 222.031C168.2 222.118 168.034 222.205 167.869 222.289C161.824 225.39 155.127 227.001 148.335 226.989C145.979 226.99 143.626 226.798 141.301 226.416C141.116 226.385 140.931 226.354 140.748 226.32C132.049 224.771 124.049 220.543 117.866 214.225C117.737 214.093 117.608 213.958 117.476 213.823C111.554 207.636 107.699 199.76 106.446 191.285C106.421 191.099 106.392 190.914 106.37 190.728C105.226 182.111 106.83 173.352 110.953 165.701C111.04 165.535 111.133 165.369 111.223 165.207C114.399 159.531 118.844 154.668 124.212 150.999C124.366 150.892 124.521 150.788 124.675 150.684C129.861 147.233 135.742 144.965 141.902 144.041C142.087 144.016 142.272 143.988 142.458 143.963C144.405 143.696 146.369 143.563 148.335 143.564C154.525 143.554 160.644 144.891 166.266 147.482C166.437 147.561 166.606 147.64 166.774 147.721C172.033 150.232 176.718 153.803 180.535 158.21C180.659 158.35 180.782 158.493 180.9 158.636C185.514 164.086 188.634 170.642 189.954 177.661V177.664C189.991 177.847 190.022 178.029 190.052 178.215C190.457 180.547 190.66 182.909 190.659 185.276Z" fill="white"/>
<path d="M152.514 182.106C153.096 182.828 153.474 183.694 153.608 184.613L174.001 180.763C173.196 176.424 171.275 172.37 168.43 168.999L152.514 182.106Z" fill="#8473C2"/>
<path d="M174.641 181.122C174.616 180.936 174.582 180.754 174.549 180.571V180.569C173.727 176.136 171.767 171.994 168.862 168.549C168.742 168.406 168.618 168.263 168.495 168.125C166.153 165.455 163.304 163.278 160.114 161.721H160.111C159.943 161.639 159.777 161.558 159.606 161.479C154.927 159.328 149.731 158.561 144.63 159.268C144.445 159.291 144.26 159.319 144.074 159.35C140.378 159.935 136.847 161.292 133.709 163.333C133.552 163.434 133.395 163.538 133.241 163.645C129.795 165.982 126.948 169.098 124.927 172.74C124.838 172.903 124.748 173.069 124.658 173.237C122.135 178.044 121.186 183.524 121.947 188.9C121.969 189.088 121.997 189.273 122.031 189.456C122.881 194.635 125.277 199.435 128.904 203.225C129.031 203.36 129.16 203.495 129.295 203.627C133.113 207.479 138.013 210.077 143.342 211.076C143.527 211.113 143.712 211.144 143.897 211.175C149.577 212.118 155.408 211.222 160.544 208.618C160.709 208.534 160.872 208.447 161.038 208.357H161.04C165.895 205.758 169.823 201.713 172.281 196.782C172.365 196.613 172.446 196.445 172.525 196.276C174.743 191.554 175.48 186.271 174.641 181.122L174.641 181.122ZM172.014 196.043C171.936 196.214 171.854 196.383 171.77 196.548C169.362 201.367 165.52 205.32 160.774 207.863C160.608 207.95 160.443 208.037 160.277 208.121C155.254 210.67 149.548 211.545 143.993 210.618C143.808 210.59 143.62 210.559 143.437 210.523C138.229 209.545 133.441 207.007 129.707 203.245C129.572 203.113 129.443 202.978 129.314 202.843C125.77 199.138 123.425 194.449 122.587 189.389C122.556 189.206 122.528 189.021 122.503 188.835C121.759 183.575 122.686 178.214 125.152 173.51C125.236 173.344 125.326 173.178 125.419 173.012C127.399 169.444 130.191 166.392 133.569 164.103C133.723 163.996 133.878 163.892 134.035 163.794C137.099 161.804 140.546 160.48 144.153 159.906C144.335 159.875 144.521 159.847 144.709 159.825C149.7 159.133 154.786 159.884 159.365 161.99C159.536 162.066 159.704 162.148 159.87 162.229C162.988 163.749 165.773 165.874 168.063 168.482C168.186 168.622 168.31 168.765 168.427 168.909C171.273 172.279 173.193 176.334 173.999 180.672C174.032 180.855 174.063 181.038 174.091 181.226C174.906 186.261 174.182 191.426 172.014 196.043V196.043Z" fill="#CCCCCC"/>
<path d="M146.384 181.085L145.927 181.411L133.569 164.103L133.241 163.645L124.212 150.999C124.366 150.892 124.52 150.788 124.675 150.684L133.709 163.333L134.035 163.794L146.384 181.085Z" fill="#CCCCCC"/>
<path d="M144.175 183.324L143.903 183.818L125.152 173.51L124.658 173.237L110.953 165.701C111.04 165.535 111.133 165.369 111.223 165.207L124.928 172.74L125.419 173.013L144.175 183.324Z" fill="#CCCCCC"/>
<path d="M143.937 186.883L122.587 189.389L122.031 189.456L106.446 191.285C106.421 191.099 106.393 190.914 106.37 190.728L121.947 188.9L122.503 188.835L143.872 186.327L143.937 186.883Z" fill="#CCCCCC"/>
<path d="M145.315 188.771L129.707 203.245L129.295 203.627L117.866 214.225C117.737 214.093 117.608 213.958 117.476 213.823L128.904 203.225L129.314 202.843L144.933 188.358L145.315 188.771Z" fill="#CCCCCC"/>
<path d="M166.774 147.721L160.114 161.721H160.111L159.87 162.229L150.765 181.369L150.26 181.128L159.365 161.99L159.606 161.479L166.266 147.482C166.437 147.561 166.606 147.64 166.774 147.721Z" fill="#CCCCCC"/>
<path d="M180.9 158.636L168.862 168.549L168.427 168.909L151.972 182.459L151.616 182.026L168.063 168.482L168.495 168.125L180.535 158.209C180.659 158.35 180.782 158.493 180.9 158.636Z" fill="#CCCCCC"/>
<path d="M190.052 178.215L174.641 181.122L174.091 181.226L153.002 185.206L152.898 184.656L173.998 180.673L174.549 180.571V180.569L189.954 177.664C189.991 177.847 190.021 178.029 190.052 178.215Z" fill="#CCCCCC"/>
<path d="M186.78 202.742C186.701 202.911 186.62 203.079 186.538 203.248L172.281 196.782L171.77 196.548L152.514 187.816L152.747 187.304L172.014 196.043L172.525 196.276L186.78 202.742Z" fill="#CCCCCC"/>
<path d="M168.366 222.031C168.2 222.118 168.034 222.205 167.869 222.29L160.544 208.619L160.277 208.121L150.266 189.436L150.76 189.172L160.774 207.863L161.037 208.357H161.04L168.366 222.031Z" fill="#CCCCCC"/>
<path d="M147.521 189.889L143.993 210.618L143.897 211.175L141.301 226.416C141.116 226.385 140.931 226.354 140.748 226.32L143.342 211.076L143.437 210.523L146.965 189.793L147.521 189.889Z" fill="#CCCCCC"/>
<path d="M147.681 180.765L147.125 180.844L144.153 159.906L144.074 159.35L141.902 144.041C142.087 144.016 142.272 143.988 142.458 143.963L144.63 159.268L144.708 159.825L147.681 180.765Z" fill="#CCCCCC"/>
<path d="M148.335 190.532C151.28 190.532 153.667 188.179 153.667 185.276C153.667 182.374 151.28 180.021 148.335 180.021C145.39 180.021 143.002 182.374 143.002 185.276C143.002 188.179 145.39 190.532 148.335 190.532Z" fill="#3F3D56"/>
<path d="M258.031 332.194L254.04 335.539L239.249 321.722L245.14 316.786L258.031 332.194Z" fill="#A0616A"/>
<path d="M261.659 336.243L249.385 346.53L249.255 346.374C248.194 345.106 247.68 343.468 247.825 341.821C247.971 340.173 248.765 338.651 250.032 337.589L250.032 337.589L250.849 334.008L256.457 332.205L257.528 331.307L261.659 336.243Z" fill="#2F2E41"/>
<path d="M222.369 344.949L217.164 344.949L214.687 324.852L222.371 324.852L222.369 344.949Z" fill="#A0616A"/>
<path d="M222.553 350.384L206.544 350.384V350.181C206.544 348.527 207.201 346.941 208.369 345.772C209.538 344.602 211.123 343.945 212.775 343.945H212.775L215.7 341.725L221.156 343.945L222.553 343.945L222.553 350.384Z" fill="#2F2E41"/>
<path d="M235.39 248.778C236.648 250.352 236.019 255.701 236.019 255.701L236.327 289.014C241.672 293.419 245.765 311.708 245.765 311.708L250.869 321.105C250.24 322.993 246.161 330.376 244.903 330.061C244.32 329.915 237.056 323.211 232.226 313.269C226.646 301.784 223.443 286.851 223.443 286.851C223.443 286.851 224.072 329.643 224.072 331.531C224.072 333.419 215.584 332.475 213.697 332.475C211.811 332.475 202.101 255.386 202.101 255.386V250.981L203.673 248.778C203.673 248.778 234.133 247.205 235.39 248.778Z" fill="#2F2E41"/>
<path d="M167.807 177.651L163.994 179.431L168.243 178.541C168.243 178.541 171.365 178.668 171.365 177.396L176.449 174.598C176.449 174.598 180.77 176.888 182.04 175.616C183.311 174.344 181.024 171.8 181.024 171.8C181.024 171.8 182.555 170.955 182.425 170.614C182.295 170.274 180.261 170.783 180.261 170.783C180.261 170.783 175.432 167.984 175.686 172.818L170.603 176.191C170.603 176.191 168.061 176.125 167.807 177.651Z" fill="#3F3D56"/>
<path d="M237.137 259.672C230.465 262.985 222.526 263.987 215.048 263.107C208.601 262.347 207.26 255.138 201.276 252.581C203.167 247.143 203.19 239.925 202.871 237.9C202.324 234.441 202.222 210.332 204.225 207.822C206.851 204.528 210.86 202.769 210.678 198.559L211.24 199.136C210.53 197.267 211.905 195.128 213.714 194.282C215.524 193.437 217.614 193.544 219.608 193.669C221.287 193.774 222.965 193.879 224.644 193.984C224.425 194.67 224.371 195.398 224.489 196.109C224.607 196.819 224.892 197.491 225.322 198.07C228.298 197.248 231.436 199.432 232.766 202.217C234.095 205.005 234.063 208.221 234.003 211.309C233.934 214.881 236.58 239.972 233.379 241.56C235.03 241.976 237.363 250.787 235.955 249.832C236.606 250.289 236.449 254.556 237.137 259.672Z" fill="#8473C2"/>
<path d="M172.283 173.499C173.002 173.287 173.759 173.236 174.501 173.349C175.242 173.461 175.95 173.736 176.574 174.152C177.198 174.568 177.723 175.116 178.112 175.757C178.502 176.398 178.746 177.117 178.828 177.863L207.137 202.775L202.025 206.173L173.928 183.616C172.666 183.671 171.429 183.26 170.45 182.463C169.471 181.665 168.818 180.536 168.615 179.288C168.412 178.041 168.674 176.763 169.35 175.696C170.026 174.629 171.069 173.847 172.283 173.499Z" fill="#A0616A"/>
<path d="M202.769 194.738C202.149 194.774 187.519 184.09 187.144 184.585L186.161 189.922L183.457 193.501L189.303 199.703L190.973 201.074L192.047 202.211C191.671 202.714 194.165 205.408 194.3 206.023C194.365 206.324 194.494 206.608 194.679 206.854C194.863 207.101 195.098 207.305 195.368 207.453L204.881 212.619C206.149 213.561 207.739 213.962 209.302 213.733C210.865 213.504 212.274 212.664 213.219 211.397C214.164 210.131 214.568 208.54 214.344 206.976C214.119 205.411 213.284 203.999 212.021 203.05L210.617 201.629L208.468 199.449L204.446 195.373C204.229 195.152 203.966 194.981 203.677 194.871C203.387 194.761 203.078 194.716 202.769 194.738Z" fill="#8473C2"/>
<path d="M218.551 190.847C224.25 190.847 228.871 186.223 228.871 180.519C228.871 174.815 224.25 170.191 218.551 170.191C212.852 170.191 208.232 174.815 208.232 180.519C208.232 186.223 212.852 190.847 218.551 190.847Z" fill="#A0616A"/>
<path d="M230.861 177.249C230.287 174.969 228.147 172.981 225.81 173.212C226.099 171.456 224.931 169.688 223.357 168.86C221.783 168.033 219.903 167.998 218.148 168.286C217.129 168.471 216.12 168.707 215.125 168.993C214.28 169.22 210.321 167.864 209.482 168.111C208.765 168.323 207.039 170.895 206.495 171.408C205.95 171.921 205.662 172.784 206.025 173.438C206.384 174.084 207.206 174.294 207.942 174.355C208.678 174.415 209.469 174.405 210.08 174.82C210.865 175.353 211.087 176.417 211.055 177.367C211.023 178.316 210.806 179.273 210.983 180.206C211.16 181.139 211.914 182.071 212.861 182.007C213.57 181.259 214.865 181.307 215.678 181.94C216.067 182.28 216.377 182.7 216.589 183.172C216.8 183.643 216.907 184.155 216.902 184.672C216.886 185.704 216.725 186.729 216.426 187.717C216.256 188.399 216.127 189.225 216.632 189.715C216.929 189.952 217.287 190.101 217.665 190.146C219.155 190.463 224.746 190.033 226.236 190.35L226.12 190.122C227.2 188.035 228.632 186.145 229.693 184.048C230.754 181.951 231.435 179.528 230.861 177.249Z" fill="#2F2E41"/>
<path d="M246.701 262.546C245.972 262.372 245.29 262.039 244.703 261.572C244.116 261.105 243.639 260.515 243.304 259.843C242.97 259.171 242.787 258.434 242.768 257.684C242.749 256.934 242.895 256.188 243.195 255.501L231.029 219.793L237.152 219.391L250.306 252.952C251.427 253.533 252.296 254.505 252.749 255.685C253.202 256.864 253.206 258.169 252.762 259.351C252.317 260.534 251.455 261.513 250.338 262.101C249.221 262.69 247.927 262.849 246.701 262.546Z" fill="#A0616A"/>
<path d="M228.211 224.461C228.766 224.739 236.143 241.293 236.714 241.05L240.221 236.911L244.346 235.153L242.36 226.862L241.593 224.841L241.227 223.32C241.802 223.071 240.98 219.492 241.168 218.892C241.261 218.598 241.29 218.288 241.253 217.982C241.216 217.676 241.113 217.382 240.953 217.119L235.271 207.9C234.639 206.451 233.459 205.312 231.99 204.732C230.52 204.152 228.881 204.179 227.431 204.807C225.982 205.435 224.84 206.612 224.257 208.082C223.673 209.551 223.696 211.192 224.32 212.644L224.83 214.575L225.611 217.536L227.072 223.076C227.15 223.376 227.293 223.655 227.489 223.894C227.686 224.133 227.932 224.327 228.211 224.461Z" fill="#8473C2"/>
<path d="M275.287 344.475L272.413 339.852L271.838 342.494C271.738 342.957 271.637 343.427 271.544 343.893C270.727 343.195 269.859 342.55 269.009 341.93C266.399 340.035 263.79 338.137 261.182 336.236L261.999 340.975C262.502 343.893 263.028 346.871 264.273 349.539C264.411 349.841 264.56 350.14 264.721 350.431H276.853C276.951 350.161 277.019 349.88 277.055 349.595C277.058 349.577 277.059 349.558 277.058 349.539C277.249 347.729 276.249 346.024 275.287 344.475Z" fill="#F0F0F0"/>
<path d="M285.556 350.885L182.742 351C182.625 351 182.512 350.953 182.428 350.87C182.345 350.787 182.298 350.674 182.298 350.556C182.298 350.438 182.345 350.325 182.428 350.242C182.512 350.158 182.625 350.111 182.742 350.111L285.556 349.997C285.614 349.997 285.672 350.008 285.726 350.03C285.78 350.052 285.829 350.085 285.871 350.126C285.912 350.168 285.945 350.217 285.967 350.271C285.99 350.325 286.001 350.383 286.001 350.441C286.001 350.499 285.99 350.557 285.967 350.611C285.945 350.665 285.912 350.714 285.871 350.756C285.829 350.797 285.78 350.83 285.726 350.852C285.672 350.874 285.614 350.885 285.556 350.885Z" fill="#CACACA"/>
<path d="M136.989 273.399L134.114 268.776L133.54 271.418C133.439 271.881 133.339 272.351 133.245 272.817C132.429 272.119 131.56 271.474 130.71 270.854C128.1 268.959 125.491 267.061 122.884 265.16L123.7 269.899C124.204 272.817 124.729 275.795 125.975 278.463C126.113 278.765 126.262 279.064 126.422 279.355H138.555C138.652 279.085 138.72 278.804 138.756 278.519C138.759 278.501 138.76 278.482 138.76 278.463C138.95 276.653 137.951 274.948 136.989 273.399Z" fill="#F0F0F0"/>
<path d="M147.258 279.809L44.4439 279.924C44.3264 279.924 44.2138 279.877 44.1308 279.793C44.0478 279.71 44.0012 279.597 44.0012 279.48C44.0012 279.362 44.0478 279.249 44.1308 279.166C44.2138 279.083 44.3264 279.036 44.4439 279.035L147.258 278.921C147.316 278.92 147.374 278.932 147.428 278.954C147.482 278.976 147.531 279.009 147.572 279.05C147.614 279.092 147.647 279.141 147.669 279.195C147.691 279.249 147.703 279.307 147.703 279.365C147.703 279.423 147.691 279.481 147.669 279.535C147.647 279.589 147.614 279.638 147.572 279.68C147.531 279.721 147.482 279.754 147.428 279.776C147.374 279.798 147.316 279.809 147.258 279.809Z" fill="#CACACA"/>
<path d="M99.7057 194.021C99.2215 193.864 98.7778 193.602 98.4056 193.254C98.0335 192.907 97.7421 192.482 97.5519 192.009C97.3616 191.536 97.2773 191.028 97.3047 190.519C97.3321 190.01 97.4707 189.514 97.7106 189.064L88.3079 162.369L89.2493 153.487L93.0855 151.002L96.9577 163.418L102.66 187.721C103.387 188.175 103.923 188.88 104.166 189.702C104.409 190.525 104.343 191.408 103.979 192.184C103.614 192.961 102.978 193.577 102.191 193.915C101.403 194.254 100.519 194.291 99.7057 194.021L99.7057 194.021Z" fill="#FFB6B6"/>
<path d="M83.2415 144.146L92.1343 140.701L97.2976 157.926L85.3798 161.706L83.2415 144.146Z" fill="#3F3D56"/>
</g>
<defs>
<filter id="filter0_d_101_3" x="0" y="0" width="332" height="469" filterUnits="userSpaceOnUse" color-interpolation-filters="sRGB">
<feFlood flood-opacity="0" result="BackgroundImageFix"/>
<feColorMatrix in="SourceAlpha" type="matrix" values="0 0 0 0 0 0 0 0 0 0 0 0 0 0 0 0 0 0 127 0" result="hardAlpha"/>
<feOffset dx="6"/>
<feGaussianBlur stdDeviation="10"/>
<feComposite in2="hardAlpha" operator="out"/>
<feColorMatrix type="matrix" values="0 0 0 0 0 0 0 0 0 0 0 0 0 0 0 0 0 0 0.31 0"/>
<feBlend mode="normal" in2="BackgroundImageFix" result="effect1_dropShadow_101_3"/>
<feBlend mode="normal" in="SourceGraphic" in2="effect1_dropShadow_101_3" result="shape"/>
</filter>
<linearGradient id="paint0_linear_101_3" x1="160" y1="20" x2="160" y2="449" gradientUnits="userSpaceOnUse">
<stop stop-color="#4776E6"/>
<stop offset="1" stop-color="#8E54E9"/>
</linearGradient>
<clipPath id="clip0_101_3">
<rect width="242" height="244" fill="white" transform="translate(44 107)"/>
</clipPath>
</defs>
</svg>
